<svg width="225" height="48" viewBox="0 0 225 48" fill="none" xmlns="http://www.w3.org/2000/svg">
<g filter="url(#filter0_d_1_65)">
<path d="M15.1582 38.1098C13.0462 38.1002 11.208 37.6919 9.64369 36.8848C8.11135 36.0778 6.9166 34.9203 6.05944 33.4124C5.23443 31.8727 4.82666 30.0628 4.83611 27.9828L4.90813 12.143C4.91773 10.031 5.34194 8.2249 6.18077 6.7247C7.0516 5.22464 8.25682 4.07811 9.79645 3.2851C11.3681 2.49224 13.2099 2.10061 15.3218 2.11021C17.4338 2.11981 19.2559 2.5441 20.7881 3.38307C22.3205 4.19005 23.4992 5.34742 24.3244 6.85518C25.1495 8.36295 25.5574 10.1568 25.5479 12.2368L21.228 12.2172C21.237 10.2332 20.7159 8.7108 19.6647 7.65001C18.6457 6.55736 17.1921 6.00675 15.3042 5.99817C13.4162 5.98958 11.9258 6.51081 10.833 7.56186C9.77222 8.61304 9.23732 10.1306 9.2283 12.1146L9.15607 28.0024C9.14705 29.9864 9.66806 31.5248 10.7191 32.6176C11.8021 33.7105 13.2877 34.2613 15.1756 34.2699C17.0636 34.2785 18.5221 33.7411 19.551 32.6578C20.6119 31.5746 21.1469 30.041 21.1559 28.057L21.1756 23.737L14.0717 23.7047L14.0896 19.7688L25.5134 19.8207L25.4759 28.0766C25.4666 30.1246 25.0424 31.9147 24.2035 33.4469C23.3646 34.9471 22.1753 36.1097 20.6356 36.9347C19.096 37.7277 17.2702 38.1194 15.1582 38.1098ZM47.3493 37.7762C45.8133 37.7692 44.4707 37.4591 43.3215 36.8459C42.1722 36.2326 41.2802 35.3646 40.6453 34.2417C40.0104 33.1188 39.6963 31.8053 39.7032 30.3013L39.8108 6.63759L30.9309 6.59722L30.9488 2.66126L44.1486 2.72127L44.0231 30.321C44.0182 31.409 44.3183 32.2743 44.9233 32.9171C45.5286 33.5279 46.3432 33.8356 47.3672 33.8402L55.7671 33.8784L55.7492 37.8144L47.3493 37.7762ZM70.2241 38.3602C67.4401 38.3475 65.2514 37.6336 63.6578 36.2183C62.0643 34.771 61.2732 32.8314 61.2842 30.3995C61.2954 27.9355 62.1042 26.0031 63.7106 24.6024C65.317 23.2017 67.4802 22.5075 70.2001 22.5199L78.36 22.557L78.372 19.917C78.3795 18.285 77.8891 17.0348 76.9011 16.1663C75.9452 15.266 74.5712 14.8117 72.7792 14.8036C71.2112 14.7964 69.8977 15.1265 68.8387 15.7936C67.7798 16.4288 67.1678 17.3061 67.0027 18.4253L62.6828 18.4057C62.9811 16.135 64.0613 14.3319 65.9234 12.9964C67.7855 11.6608 70.1085 10.9994 72.8925 11.012C75.9324 11.0259 78.3289 11.8208 80.0817 13.3967C81.8346 14.9727 82.7049 17.1047 82.6927 19.7927L82.6102 37.9365L78.3862 37.9173L78.4091 32.8773L77.6891 32.8741L78.4124 32.1573C78.4037 34.0773 77.6448 35.5939 76.1357 36.707C74.6586 37.8203 72.6881 38.3714 70.2241 38.3602ZM71.2956 34.957C73.3436 34.9663 75.0259 34.462 76.3425 33.4439C77.6592 32.4259 78.3211 31.1169 78.3284 29.5169L78.3454 25.773L70.2815 25.7363C68.8415 25.7298 67.7037 26.1246 66.8681 26.9208C66.0325 27.717 65.6115 28.8031 65.6053 30.1791C65.5986 31.6511 66.0893 32.8213 67.0773 33.6898C68.0975 34.5265 69.5036 34.9489 71.2956 34.957ZM101.261 38.5013C98.2211 38.4875 95.7932 37.5804 93.9773 35.7801C92.1616 33.9479 91.2609 31.4797 91.275 28.3758L91.3513 11.576L95.6713 11.5956L95.5949 28.3954C95.5859 30.3794 96.0908 31.9337 97.1097 33.0584C98.1288 34.151 99.5183 34.7013 101.278 34.7093C103.07 34.7175 104.481 34.1799 105.51 33.0965C106.571 31.9814 107.106 30.4318 107.115 28.4478L107.191 11.648L111.511 11.6676L111.435 28.4674C111.421 31.5714 110.481 34.0312 108.617 35.8467C106.753 37.6302 104.301 38.5151 101.261 38.5013ZM130.282 38.6332C128.17 38.6236 126.316 38.2152 124.72 37.4079C123.155 36.6008 121.944 35.4433 121.087 33.9354C120.23 32.3955 119.806 30.5855 119.816 28.5055L119.849 21.3056C119.858 19.1936 120.298 17.3876 121.169 15.8876C122.04 14.3875 123.261 13.241 124.833 12.4482C126.437 11.6555 128.294 11.2639 130.406 11.2735C133.446 11.2873 135.891 12.1144 137.739 13.7549C139.588 15.3953 140.554 17.6237 140.637 20.4401L136.317 20.4205C136.229 18.724 135.658 17.4254 134.607 16.5247C133.587 15.592 132.181 15.1216 130.389 15.1135C128.501 15.1049 126.994 15.642 125.87 16.7249C124.745 17.7758 124.178 19.2933 124.169 21.2772L124.136 28.5252C124.127 30.5092 124.68 32.0477 125.795 33.1408C126.91 34.2338 128.411 34.7847 130.299 34.7933C132.091 34.8014 133.502 34.3438 134.53 33.4205C135.59 32.4973 136.172 31.2039 136.275 29.5404L140.595 29.56C140.487 32.3755 139.5 34.5951 137.637 36.2186C135.774 37.8422 133.322 38.647 130.282 38.6332ZM148.553 38.2363L148.571 34.3003L157.931 34.3429L158.015 15.8151L149.855 15.778L149.873 11.842L162.353 11.8987L162.251 34.3625L171.131 34.4029L171.113 38.3388L148.553 38.2363ZM159.735 7.13479C158.679 7.12999 157.848 6.85421 157.242 6.30745C156.637 5.7607 156.336 5.02332 156.341 4.09533C156.345 3.13534 156.652 2.38473 157.263 1.8435C157.873 1.27027 158.707 0.986056 159.763 0.990857C160.819 0.995657 161.649 1.28744 162.255 1.86619C162.86 2.41295 163.161 3.16633 163.156 4.12632C163.152 5.05431 162.845 5.78892 162.234 6.33015C161.624 6.87138 160.791 7.13959 159.735 7.13479ZM187.652 38.798C185.54 38.7884 183.718 38.3802 182.186 37.5732C180.654 36.7662 179.459 35.6088 178.602 34.1008C177.777 32.5611 177.369 30.7512 177.378 28.6712L177.41 21.6633C177.42 19.5513 177.844 17.7452 178.683 16.245C179.554 14.745 180.759 13.5984 182.298 12.8054C183.838 12.0124 185.664 11.6207 187.776 11.6303C189.888 11.6399 191.71 12.0482 193.242 12.8552C194.775 13.6622 195.953 14.8195 196.779 16.3273C197.636 17.8352 198.06 19.6292 198.05 21.7091L198.018 28.7651C198.009 30.845 197.568 32.6511 196.697 34.1831C195.859 35.6833 194.669 36.8299 193.13 37.6229C191.59 38.4159 189.764 38.8076 187.652 38.798ZM187.67 34.9581C189.558 34.9667 191.032 34.4454 192.093 33.3942C193.154 32.343 193.689 30.7934 193.698 28.7454L193.73 21.7375C193.739 19.6895 193.218 18.1351 192.167 17.0743C191.116 16.0136 189.646 15.4789 187.758 15.4703C185.902 15.4618 184.428 15.9831 183.335 17.0342C182.274 18.0854 181.739 19.635 181.73 21.6829L181.698 28.6909C181.689 30.7388 182.21 32.2932 183.261 33.354C184.344 34.415 185.814 34.9496 187.67 34.9581ZM216.433 39.0249C215.217 39.0194 214.242 38.6629 213.51 37.9556C212.809 37.2484 212.461 36.3028 212.467 35.1188C212.472 33.8708 212.829 32.8804 213.536 32.1476C214.275 31.415 215.253 31.0514 216.469 31.057C217.685 31.0625 218.643 31.4349 219.344 32.174C220.077 32.9134 220.44 33.9071 220.434 35.155C220.429 36.339 220.057 37.2813 219.318 37.982C218.61 38.6828 217.649 39.0304 216.433 39.0249Z" fill="#EEF7F6" fill-opacity="0.99" shape-rendering="crispEdges"/>
<path d="M9.64369 36.8848L0.79042 53.696L0.861006 53.7332L0.931902 53.7698L9.64369 36.8848ZM6.05944 33.4124L-10.6881 42.3858L-10.5758 42.5952L-10.4584 42.8018L6.05944 33.4124ZM6.18077 6.7247L-10.251 -2.81446L-10.328 -2.68182L-10.4029 -2.54796L6.18077 6.7247ZM9.79645 3.2851L1.23855 -13.6785L1.16732 -13.6425L1.0964 -13.606L9.79645 3.2851ZM20.7881 3.38307L11.6629 20.0483L11.7983 20.1224L11.9348 20.1944L20.7881 3.38307ZM25.5479 12.2368L25.4615 31.2366L44.4613 31.323L44.5477 12.3232L25.5479 12.2368ZM21.228 12.2172L2.22815 12.1308L2.14178 31.1306L21.1416 31.217L21.228 12.2172ZM19.6647 7.65001L5.76984 20.6089L5.96615 20.8194L6.16874 21.0238L19.6647 7.65001ZM10.833 7.56186L-2.3379 -6.1322L-2.44009 -6.03391L-2.5408 -5.93412L10.833 7.56186ZM10.7191 32.6176L-2.97495 45.7885L-2.87667 45.8907L-2.77687 45.9914L10.7191 32.6176ZM19.551 32.6578L5.97728 19.3629L5.87511 19.4672L5.77456 19.5731L19.551 32.6578ZM21.1756 23.737L40.1754 23.8234L40.2618 4.82362L21.262 4.73724L21.1756 23.737ZM14.0717 23.7047L-4.92815 23.6184L-5.01452 42.6182L13.9853 42.7046L14.0717 23.7047ZM14.0896 19.7688L14.1759 0.768985L-4.82387 0.682607L-4.91025 19.6824L14.0896 19.7688ZM25.5134 19.8207L44.5132 19.9071L44.5996 0.907299L25.5998 0.820921L25.5134 19.8207ZM24.2035 33.4469L40.7871 42.7196L40.8283 42.646L40.8687 42.5721L24.2035 33.4469ZM20.6356 36.9347L29.3356 53.8258L29.4729 53.7551L29.6089 53.6822L20.6356 36.9347ZM15.2446 19.11C15.5399 19.1114 16.7697 19.1815 18.3555 19.9997L0.931902 53.7698C5.64639 56.2022 10.5525 57.0891 15.0718 57.1096L15.2446 19.11ZM18.497 20.0735C20.1811 20.9604 21.6438 22.3809 22.5773 24.0231L-10.4584 42.8018C-7.81064 47.4598 -3.95846 51.1952 0.79042 53.696L18.497 20.0735ZM22.807 24.4391C23.7349 26.1709 23.8381 27.5905 23.8359 28.0692L-14.1637 27.8964C-14.1848 32.5351 -13.266 37.5744 -10.6881 42.3858L22.807 24.4391ZM23.8359 28.0692L23.9079 12.2293L-14.0917 12.0566L-14.1637 27.8964L23.8359 28.0692ZM23.9079 12.2293C23.9062 12.606 23.8166 14.1155 22.7644 15.9974L-10.4029 -2.54796C-13.1328 2.33427 -14.0708 7.45597 -14.0917 12.0566L23.9079 12.2293ZM22.6126 16.2639C21.6642 17.8975 20.1887 19.3046 18.4965 20.1762L1.0964 -13.606C-3.67503 -11.1484 -7.56102 -7.4482 -10.251 -2.81446L22.6126 16.2639ZM18.3543 20.2487C16.7612 21.0524 15.5308 21.1114 15.2355 21.11L15.4082 -16.8896C10.8889 -16.9101 5.97496 -16.0679 1.23855 -13.6785L18.3543 20.2487ZM15.2355 21.11C14.8434 21.1082 13.4262 21.0138 11.6629 20.0483L29.9133 -13.2822C25.0857 -15.9256 20.0242 -16.8686 15.4082 -16.8896L15.2355 21.11ZM11.9348 20.1944C11.1439 19.7778 10.3029 19.1923 9.50992 18.4137C8.71607 17.6343 8.103 16.7915 7.65708 15.9767L40.9917 -2.2663C38.3595 -7.07586 34.4507 -10.8955 29.6414 -13.4282L11.9348 20.1944ZM7.65708 15.9767C6.64409 14.1257 6.546 12.6151 6.54811 12.1504L44.5477 12.3232C44.5687 7.69851 43.655 2.60023 40.9917 -2.2663L7.65708 15.9767ZM25.6343 -6.763L21.3143 -6.78264L21.1416 31.217L25.4615 31.2366L25.6343 -6.763ZM40.2278 12.3035C40.2519 6.99287 38.8054 -0.027496 33.1607 -5.72381L6.16874 21.0238C2.62636 17.4491 2.22205 13.4735 2.22815 12.1308L40.2278 12.3035ZM33.5596 -5.30888C28.0764 -11.188 21.0497 -12.9759 15.3905 -13.0016L15.2178 24.998C14.3639 24.9941 12.8774 24.8665 11.0795 24.1854C9.19418 23.4712 7.32885 22.2805 5.76984 20.6089L33.5596 -5.30888ZM15.3905 -13.0016C9.83718 -13.0269 3.14015 -11.401 -2.3379 -6.1322L24.0039 21.2559C22.5005 22.7019 20.7658 23.7149 19.0427 24.3175C17.3887 24.8959 16.0264 25.0016 15.2178 24.998L15.3905 -13.0016ZM-2.5408 -5.93412C-8.23711 -0.28936 -9.74736 6.71756 -9.77151 12.0282L28.2281 12.201C28.222 13.5437 27.7816 17.5154 24.2068 21.0578L-2.5408 -5.93412ZM-9.77151 12.0282L-9.84374 27.9161L28.1559 28.0888L28.2281 12.201L-9.77151 12.0282ZM-9.84374 27.9161C-9.86804 33.2628 -8.40807 40.1396 -2.97495 45.7885L24.4132 19.4467C27.7442 22.91 28.1621 26.71 28.1559 28.0888L-9.84374 27.9161ZM-2.77687 45.9914C2.62595 51.4436 9.37802 53.2437 15.0893 53.2697L15.262 15.2701C16.1277 15.274 17.5494 15.4047 19.2505 16.0354C21.0214 16.6919 22.7516 17.7669 24.2151 19.2438L-2.77687 45.9914ZM15.0893 53.2697C20.7484 53.2954 27.7911 51.5715 33.3275 45.7424L5.77456 19.5731C7.3487 17.9157 9.22478 16.742 11.1165 16.045C12.9205 15.3803 14.4082 15.2662 15.262 15.2701L15.0893 53.2697ZM33.1247 45.9526C38.609 40.3533 40.1314 33.4902 40.1558 28.1434L2.15614 27.9706C2.16241 26.5918 2.6149 22.7958 5.97728 19.3629L33.1247 45.9526ZM40.1558 28.1434L40.1754 23.8234L2.17578 23.6507L2.15614 27.9706L40.1558 28.1434ZM21.262 4.73724L14.158 4.70494L13.9853 42.7046L21.0892 42.7368L21.262 4.73724ZM33.0715 23.7911L33.0894 19.8552L-4.91025 19.6824L-4.92815 23.6184L33.0715 23.7911ZM14.0032 38.7686L25.4271 38.8205L25.5998 0.820921L14.1759 0.768985L14.0032 38.7686ZM6.51363 19.7343L6.4761 27.9903L44.4757 28.163L44.5132 19.9071L6.51363 19.7343ZM6.4761 27.9903C6.47867 27.4244 6.61705 26.004 7.53824 24.3217L40.8687 42.5721C43.4678 37.8254 44.4545 32.8249 44.4757 28.163L6.4761 27.9903ZM7.61981 24.1743C8.58231 22.4529 10.0588 21.0463 11.6622 20.1872L29.6089 53.6822C34.2919 51.1731 38.147 47.4413 40.7871 42.7196L7.61981 24.1743ZM11.9355 20.0436C13.646 19.1626 14.9633 19.1088 15.2446 19.11L15.0718 57.1096C19.5771 57.1301 24.5459 56.2928 29.3356 53.8258L11.9355 20.0436ZM43.3215 36.8459L34.3768 53.6087L34.3768 53.6087L43.3215 36.8459ZM40.6453 34.2417L57.1846 24.8901L57.1846 24.8901L40.6453 34.2417ZM39.8108 6.63759L58.8106 6.72397L58.8969 -12.2758L39.8971 -12.3622L39.8108 6.63759ZM30.9309 6.59722L11.9311 6.51084L11.8447 25.5106L30.8445 25.597L30.9309 6.59722ZM30.9488 2.66126L31.0351 -16.3385L12.0353 -16.4249L11.9489 2.57488L30.9488 2.66126ZM44.1486 2.72127L63.1484 2.80765L63.2348 -16.1922L44.235 -16.2785L44.1486 2.72127ZM44.9233 32.9171L31.089 45.9406L31.2559 46.1179L31.4274 46.2909L44.9233 32.9171ZM55.7671 33.8784L74.7669 33.9648L74.8533 14.965L55.8535 14.8786L55.7671 33.8784ZM55.7492 37.8144L55.6628 56.8142L74.6626 56.9006L74.749 37.9007L55.7492 37.8144ZM47.4357 18.7764C48.4372 18.7809 50.2389 19.0013 52.2662 20.083L34.3768 53.6087C38.7024 55.9169 43.1894 56.7575 47.2629 56.776L47.4357 18.7764ZM52.2662 20.083C54.2679 21.1512 56.0248 22.839 57.1846 24.8901L24.106 43.5932C26.5355 47.8902 30.0766 51.3141 34.3768 53.6087L52.2662 20.083ZM57.1846 24.8901C58.4295 27.0918 58.7087 29.1388 58.703 30.3877L20.7034 30.215C20.684 34.4719 21.5913 39.1457 24.106 43.5932L57.1846 24.8901ZM58.703 30.3877L58.8106 6.72397L20.811 6.55121L20.7034 30.215L58.703 30.3877ZM39.8971 -12.3622L31.0172 -12.4026L30.8445 25.597L39.7244 25.6374L39.8971 -12.3622ZM49.9307 6.6836L49.9486 2.74764L11.9489 2.57488L11.9311 6.51084L49.9307 6.6836ZM30.8624 21.6611L44.0622 21.7211L44.235 -16.2785L31.0351 -16.3385L30.8624 21.6611ZM25.1488 2.63489L25.0233 30.2346L63.0229 30.4074L63.1484 2.80765L25.1488 2.63489ZM25.0233 30.2346C25.0017 35.0008 26.409 40.9692 31.089 45.9406L58.7577 19.8936C62.2275 23.5794 63.0347 27.8171 63.0229 30.4074L25.0233 30.2346ZM31.4274 46.2909C36.2455 51.153 42.2499 52.8172 47.2808 52.84L47.4536 14.8404C48.8159 14.8466 50.6543 15.0582 52.7022 15.8317C54.8115 16.6285 56.778 17.887 58.4193 19.5433L31.4274 46.2909ZM47.2808 52.84L55.6807 52.8782L55.8535 14.8786L47.4536 14.8404L47.2808 52.84ZM36.7673 33.792L36.7494 37.728L74.749 37.9007L74.7669 33.9648L36.7673 33.792ZM55.8356 18.8146L47.4357 18.7764L47.2629 56.776L55.6628 56.8142L55.8356 18.8146ZM63.6578 36.2183L50.8834 50.283L50.9619 50.3543L51.0411 50.4247L63.6578 36.2183ZM63.7106 24.6024L51.2236 10.282L51.2236 10.282L63.7106 24.6024ZM78.36 22.557L78.2737 41.5568L97.2735 41.6432L97.3598 22.6434L78.36 22.557ZM76.9011 16.1663L63.874 29.9973L64.1118 30.2213L64.3572 30.437L76.9011 16.1663ZM68.8387 15.7936L78.6124 32.087L78.7906 31.9802L78.9664 31.8694L68.8387 15.7936ZM67.0027 18.4253L66.9163 37.4251L83.3948 37.5L85.7993 21.1978L67.0027 18.4253ZM62.6828 18.4057L43.8446 15.9307L41.0361 37.3075L62.5964 37.4055L62.6828 18.4057ZM65.9234 12.9964L76.997 28.4358L76.997 28.4358L65.9234 12.9964ZM80.0817 13.3967L92.785 -0.732196L92.785 -0.7322L80.0817 13.3967ZM82.6102 37.9365L82.5238 56.9363L101.524 57.0227L101.61 38.0229L82.6102 37.9365ZM78.3862 37.9173L59.3864 37.8309L59.3 56.8307L78.2998 56.9171L78.3862 37.9173ZM78.4091 32.8773L97.4089 32.9637L97.4953 13.9639L78.4955 13.8775L78.4091 32.8773ZM77.6891 32.8741L64.3153 19.3781L31.7331 51.6653L77.6028 51.8739L77.6891 32.8741ZM78.4124 32.1573L97.4122 32.2437L97.6207 -13.6258L65.0386 18.6614L78.4124 32.1573ZM76.1357 36.707L64.857 21.4168L64.778 21.4751L64.6996 21.5341L76.1357 36.707ZM76.3425 33.4439L64.7206 18.413L64.7206 18.413L76.3425 33.4439ZM78.3454 25.773L97.3452 25.8594L97.4316 6.85955L78.4318 6.77317L78.3454 25.773ZM67.0773 33.6898L54.5335 47.9605L54.7777 48.1752L55.0291 48.3814L67.0773 33.6898ZM70.3105 19.3604C70.7022 19.3622 73.4671 19.5188 76.2744 22.012L51.0411 50.4247C57.0356 55.7483 64.178 57.3329 70.1377 57.36L70.3105 19.3604ZM76.4322 22.1536C77.676 23.2833 78.7559 24.7709 79.462 26.5019C80.1456 28.1778 80.288 29.6082 80.284 30.4858L42.2844 30.3131C42.2524 37.3558 44.7628 44.7238 50.8834 50.283L76.4322 22.1536ZM80.284 30.4858C80.2803 31.3116 80.1366 32.7402 79.4259 34.4381C78.6871 36.2033 77.5472 37.7461 76.1975 38.9229L51.2236 10.282C44.8412 15.8472 42.3161 23.3313 42.2844 30.3131L80.284 30.4858ZM76.1975 38.9229C73.4443 41.3236 70.7008 41.5224 70.1137 41.5197L70.2865 3.5201C64.2595 3.4927 57.1896 5.07983 51.2236 10.282L76.1975 38.9229ZM70.1137 41.5197L78.2737 41.5568L78.4464 3.5572L70.2865 3.5201L70.1137 41.5197ZM97.3598 22.6434L97.3718 20.0034L59.3722 19.8307L59.3602 22.4706L97.3598 22.6434ZM97.3718 20.0034C97.3977 14.309 95.5252 7.2402 89.4449 1.89563L64.3572 30.437C62.5277 28.8288 61.1582 26.8258 60.3215 24.6924C59.5227 22.6555 59.3673 20.9147 59.3722 19.8307L97.3718 20.0034ZM89.9281 2.33534C84.359 -2.91012 77.6908 -4.17431 72.8656 -4.19625L72.6929 33.8034C71.4516 33.7977 67.5313 33.442 63.874 29.9973L89.9281 2.33534ZM72.8656 -4.19625C68.5939 -4.21567 63.5154 -3.30888 58.711 -0.28212L78.9664 31.8694C76.28 33.5618 73.8286 33.8085 72.6929 33.8034L72.8656 -4.19625ZM59.0649 -0.499717C53.633 2.75872 49.2845 8.34171 48.2061 15.6528L85.7993 21.1978C85.4778 23.3777 84.6434 25.6845 83.1681 27.7991C81.7226 29.8711 80.0271 31.2384 78.6124 32.087L59.0649 -0.499717ZM67.0891 -0.574475L62.7691 -0.594115L62.5964 37.4055L66.9163 37.4251L67.0891 -0.574475ZM81.5209 20.8807C81.3619 22.0903 80.9274 23.5927 80.0156 25.1148C79.1039 26.6366 77.9853 27.7269 76.997 28.4358L54.8498 -2.44304C48.7212 1.95255 44.8278 8.44743 43.8446 15.9307L81.5209 20.8807ZM76.997 28.4358C76.0546 29.1117 75.0945 29.5362 74.2654 29.7723C73.4679 29.9994 72.9361 30.0124 72.8061 30.0118L72.9788 -7.98777C67.0702 -8.01464 60.6111 -6.57525 54.8498 -2.44304L76.997 28.4358ZM72.8061 30.0118C72.7178 30.0114 72.0338 29.9993 70.9879 29.6523C69.8797 29.2848 68.5852 28.6106 67.3784 27.5257L92.785 -0.7322C86.6574 -6.24147 79.2924 -7.95907 72.9788 -7.98777L72.8061 30.0118ZM67.3784 27.5257C66.1742 26.443 65.1332 25.0119 64.4583 23.3586C63.808 21.7656 63.6895 20.4425 63.6929 19.7063L101.692 19.8791C101.725 12.6142 99.1549 4.995 92.785 -0.732196L67.3784 27.5257ZM63.6929 19.7063L63.6104 37.8501L101.61 38.0229L101.692 19.8791L63.6929 19.7063ZM82.6965 18.9367L78.4726 18.9175L78.2998 56.9171L82.5238 56.9363L82.6965 18.9367ZM97.386 38.0037L97.4089 32.9637L59.4093 32.791L59.3864 37.8309L97.386 38.0037ZM78.4955 13.8775L77.7755 13.8743L77.6028 51.8739L78.3227 51.8771L78.4955 13.8775ZM91.0629 46.37L91.7862 45.6533L65.0386 18.6614L64.3153 19.3781L91.0629 46.37ZM59.4126 32.071C59.4197 30.4972 59.7534 28.4142 60.8453 26.2321C61.9449 24.0349 63.4576 22.4491 64.857 21.4168L87.4144 51.9973C93.8889 47.2214 97.3769 39.9979 97.4122 32.2437L59.4126 32.071ZM64.6996 21.5341C67.4926 19.429 69.9921 19.3589 70.3105 19.3604L70.1377 57.36C75.3841 57.3838 81.8246 56.2117 87.5717 51.8799L64.6996 21.5341ZM71.2092 53.9568C76.492 53.9808 82.5823 52.6364 87.9645 48.4749L64.7206 18.413C67.4694 16.2875 70.1951 15.9518 71.382 15.9572L71.2092 53.9568ZM87.9645 48.4749C93.6941 44.0448 97.2931 37.3235 97.3282 29.6033L59.3286 29.4306C59.3371 27.5535 59.7533 25.335 60.8712 23.1244C61.9773 20.937 63.445 19.3993 64.7206 18.413L87.9645 48.4749ZM97.3282 29.6033L97.3452 25.8594L59.3456 25.6866L59.3286 29.4306L97.3282 29.6033ZM78.4318 6.77317L70.3679 6.73651L70.1951 44.7361L78.259 44.7728L78.4318 6.77317ZM70.3679 6.73651C65.295 6.71344 58.9801 8.19277 53.7614 13.1652L79.9747 40.6764C76.4273 44.0564 72.388 44.7461 70.1951 44.7361L70.3679 6.73651ZM53.7614 13.1652C48.4733 18.204 46.6303 24.6202 46.6055 30.0927L84.6051 30.2655C84.5995 31.4851 84.4063 33.2259 83.6416 35.1988C82.851 37.2386 81.6008 39.127 79.9747 40.6764L53.7614 13.1652ZM46.6055 30.0927C46.5771 36.3278 48.8999 43.0086 54.5335 47.9605L79.6212 19.4192C81.208 20.8139 82.5809 22.6451 83.4903 24.8138C84.3769 26.9282 84.6115 28.8538 84.6051 30.2655L46.6055 30.0927ZM55.0291 48.3814C60.458 52.8334 66.611 53.9359 71.2092 53.9568L71.382 15.9572C72.3962 15.9618 75.737 16.2195 79.1255 18.9983L55.0291 48.3814ZM93.9773 35.7801L80.4814 49.154L80.5405 49.2137L80.6002 49.2729L93.9773 35.7801ZM91.3513 11.576L91.4377 -7.42385L72.4379 -7.51023L72.3515 11.4896L91.3513 11.576ZM95.6713 11.5956L114.671 11.682L114.757 -7.31783L95.7577 -7.40421L95.6713 11.5956ZM97.1097 33.0584L83.0291 45.8151L83.1212 45.9168L83.2149 46.0173L97.1097 33.0584ZM105.51 33.0965L91.7449 19.9996L91.739 20.0057L91.7332 20.0118L105.51 33.0965ZM107.191 11.648L107.278 -7.35184L88.2778 -7.43822L88.1914 11.5616L107.191 11.648ZM111.511 11.6676L130.511 11.754L130.597 -7.24582L111.598 -7.3322L111.511 11.6676ZM108.617 35.8467L121.752 49.5752L121.813 49.5171L121.873 49.4585L108.617 35.8467ZM101.347 19.5015C101.689 19.503 102.595 19.5585 103.81 20.0122C105.083 20.4877 106.324 21.2654 107.354 22.2874L80.6002 49.2729C86.6093 55.2304 94.1611 57.4692 101.175 57.5011L101.347 19.5015ZM107.473 22.4063C108.53 23.4731 109.317 24.7504 109.788 26.0407C110.236 27.2664 110.276 28.1624 110.275 28.4622L72.2752 28.2894C72.2431 35.3368 74.4155 43.0327 80.4814 49.154L107.473 22.4063ZM110.275 28.4622L110.351 11.6623L72.3515 11.4896L72.2752 28.2894L110.275 28.4622ZM91.265 30.5758L95.5849 30.5954L95.7577 -7.40421L91.4377 -7.42385L91.265 30.5758ZM76.6715 11.5092L76.5951 28.309L114.595 28.4818L114.671 11.682L76.6715 11.5092ZM76.5951 28.309C76.5713 33.5411 77.9446 40.2029 83.0291 45.8151L111.19 20.3016C114.237 23.6645 114.6 27.2177 114.595 28.4818L76.5951 28.309ZM83.2149 46.0173C88.4441 51.6241 95.2066 53.6819 101.192 53.7091L101.365 15.7095C102.439 15.7144 104.054 15.8894 105.912 16.6256C107.837 17.3878 109.591 18.5843 111.005 20.0995L83.2149 46.0173ZM101.192 53.7091C107.094 53.736 113.939 51.8109 119.286 46.1812L91.7332 20.0118C93.1972 18.4704 94.9903 17.291 96.9132 16.5581C98.7639 15.8527 100.348 15.7049 101.365 15.7095L101.192 53.7091ZM119.274 46.1935C124.557 40.6416 126.09 33.9135 126.115 28.5342L88.115 28.3614C88.1214 26.95 88.5845 23.3211 91.7449 19.9996L119.274 46.1935ZM126.115 28.5342L126.191 11.7343L88.1914 11.5616L88.115 28.3614L126.115 28.5342ZM107.105 30.6478L111.425 30.6674L111.598 -7.3322L107.278 -7.35184L107.105 30.6478ZM92.5113 11.5812L92.435 28.3811L130.435 28.5538L130.511 11.754L92.5113 11.5812ZM92.435 28.3811C92.4365 28.0463 92.4917 27.1147 92.9697 25.8628C93.4722 24.5467 94.2929 23.2753 95.3612 22.2349L121.873 49.4585C128.082 43.4121 130.402 35.6975 130.435 28.5538L92.435 28.3811ZM95.4822 22.1182C96.4857 21.158 97.6903 20.4237 98.9307 19.9761C100.117 19.5481 101.003 19.4999 101.347 19.5015L101.175 57.5011C108.198 57.533 115.705 55.3614 121.752 49.5752L95.4822 22.1182ZM124.72 37.4079L116.008 54.293L116.076 54.3284L116.145 54.3632L124.72 37.4079ZM121.087 33.9354L104.485 43.175L104.527 43.25L104.569 43.3247L121.087 33.9354ZM121.169 15.8876L104.737 6.34839L104.737 6.34839L121.169 15.8876ZM124.833 12.4482L116.413 -4.5844L116.344 -4.55017L116.275 -4.51538L124.833 12.4482ZM137.739 13.7549L125.128 27.9661L125.128 27.9661L137.739 13.7549ZM140.637 20.4401L140.55 39.4399L160.209 39.5293L159.629 19.8791L140.637 20.4401ZM136.317 20.4205L117.343 21.408L118.276 39.3386L136.23 39.4203L136.317 20.4205ZM134.607 16.5247L121.784 30.5453L122.013 30.7546L122.248 30.9563L134.607 16.5247ZM125.87 16.7249L138.841 30.6082L138.944 30.5115L139.046 30.4133L125.87 16.7249ZM125.795 33.1408L112.494 46.7087L112.494 46.7087L125.795 33.1408ZM134.53 33.4205L122.053 19.0915L121.943 19.1868L121.835 19.2839L134.53 33.4205ZM136.275 29.5404L136.362 10.5406L118.427 10.459L117.312 28.3598L136.275 29.5404ZM140.595 29.56L159.581 30.2937L160.34 10.6496L140.682 10.5602L140.595 29.56ZM137.637 36.2186L125.156 21.8933L125.156 21.8933L137.637 36.2186ZM130.368 19.6334C130.676 19.6348 131.822 19.7086 133.294 20.4526L116.145 54.3632C120.809 56.7218 125.664 57.6124 130.196 57.633L130.368 19.6334ZM133.431 20.5229C134.183 20.9105 134.994 21.4606 135.768 22.2009C136.544 22.9427 137.154 23.7524 137.605 24.546L104.569 43.3247C107.275 48.0853 111.221 51.8235 116.008 54.293L133.431 20.5229ZM137.689 24.6958C138.683 26.4821 138.818 27.9994 138.816 28.5919L100.816 28.4192C100.795 33.1716 101.777 38.3089 104.485 43.175L137.689 24.6958ZM138.816 28.5919L138.848 21.392L100.849 21.2192L100.816 28.4192L138.816 28.5919ZM138.848 21.392C138.846 21.8813 138.725 23.4901 137.601 25.4267L104.737 6.34839C101.872 11.2852 100.87 16.506 100.849 21.2192L138.848 21.392ZM137.601 25.4267C137.143 26.2162 136.525 27.0203 135.743 27.755C134.962 28.4882 134.146 29.031 133.391 29.4117L116.275 -4.51538C111.467 -2.08952 107.487 1.61266 104.737 6.34839L137.601 25.4267ZM133.253 29.4808C131.775 30.2113 130.628 30.2747 130.32 30.2733L130.493 -7.7263C125.961 -7.7469 121.098 -6.90042 116.413 -4.5844L133.253 29.4808ZM130.32 30.2733C130.152 30.2725 129.451 30.2474 128.429 29.9017C127.355 29.5381 126.186 28.9051 125.128 27.9661L150.35 -0.456385C144.301 -5.82465 137.044 -7.69652 130.493 -7.7263L130.32 30.2733ZM125.128 27.9661C124.016 26.9797 123.057 25.6877 122.417 24.2126C121.801 22.7907 121.663 21.6217 121.645 21.0011L159.629 19.8791C159.414 12.6326 156.68 5.1609 150.35 -0.456392L125.128 27.9661ZM140.723 1.4403L136.403 1.42066L136.23 39.4203L140.55 39.4399L140.723 1.4403ZM155.291 19.433C154.998 13.8001 152.838 7.1221 146.965 2.09302L122.248 30.9563C120.552 29.5038 119.26 27.7121 118.426 25.8118C117.625 23.9875 117.395 22.4115 117.343 21.408L155.291 19.433ZM147.429 2.50404C141.996 -2.46472 135.545 -3.86329 130.475 -3.88634L130.303 34.1133C128.817 34.1065 125.177 33.6487 121.784 30.5453L147.429 2.50404ZM130.475 -3.88634C124.743 -3.9124 118.1 -2.16821 112.693 3.03658L139.046 30.4133C137.62 31.7866 135.946 32.7925 134.224 33.4062C132.565 33.9979 131.174 34.1172 130.303 34.1133L130.475 -3.88634ZM112.898 2.84162C106.922 8.42488 105.195 15.5691 105.169 21.1909L143.169 21.3636C143.165 22.126 143.054 23.5472 142.399 25.3006C141.71 27.146 140.538 29.0229 138.841 30.6082L112.898 2.84162ZM105.169 21.1909L105.136 28.4388L143.136 28.6116L143.169 21.3636L105.169 21.1909ZM105.136 28.4388C105.11 34.091 106.783 41.1102 112.494 46.7087L139.096 19.5728C140.68 21.1257 141.778 22.9446 142.424 24.7402C143.039 26.4524 143.139 27.8431 143.136 28.6116L105.136 28.4388ZM112.494 46.7087C117.853 51.9625 124.48 53.767 130.213 53.7931L130.386 15.7935C131.257 15.7974 132.647 15.9294 134.301 16.5361C136.017 17.1655 137.682 18.1866 139.096 19.5728L112.494 46.7087ZM130.213 53.7931C135.283 53.8161 141.747 52.4763 147.224 47.5571L121.835 19.2839C125.256 16.2114 128.9 15.7867 130.386 15.7935L130.213 53.7931ZM147.007 47.7495C152.605 42.8749 154.882 36.4445 155.239 30.7209L117.312 28.3598C117.378 27.2986 117.637 25.7352 118.434 23.9626C119.259 22.1296 120.494 20.4483 122.053 19.0915L147.007 47.7495ZM136.189 48.5402L140.509 48.5598L140.682 10.5602L136.362 10.5406L136.189 48.5402ZM121.61 28.8263C121.633 28.2059 121.781 27.0383 122.411 25.6221C123.063 24.1527 124.035 22.8696 125.156 21.8933L150.118 50.544C156.499 44.9845 159.301 37.5379 159.581 30.2937L121.61 28.8263ZM125.156 21.8933C126.222 20.964 127.397 20.3417 128.474 19.9878C129.499 19.6514 130.201 19.6327 130.368 19.6334L130.196 57.633C136.747 57.6628 144.02 55.857 150.118 50.544L125.156 21.8933ZM148.553 38.2363L129.553 38.1499L129.467 57.1497L148.467 57.2361L148.553 38.2363ZM148.571 34.3003L148.658 15.3005L129.658 15.2141L129.571 34.2139L148.571 34.3003ZM157.931 34.3429L157.845 53.3427L176.844 53.4291L176.931 34.4293L157.931 34.3429ZM158.015 15.8151L177.015 15.9014L177.101 -3.09836L158.102 -3.18474L158.015 15.8151ZM149.855 15.778L130.856 15.6916L130.769 34.6914L149.769 34.7778L149.855 15.778ZM149.873 11.842L149.96 -7.15779L130.96 -7.24417L130.873 11.7556L149.873 11.842ZM162.353 11.8987L181.353 11.9851L181.439 -7.01468L162.439 -7.10106L162.353 11.8987ZM162.251 34.3625L143.251 34.2761L143.165 53.2759L162.165 53.3623L162.251 34.3625ZM171.131 34.4029L190.131 34.4893L190.217 15.4895L171.217 15.4031L171.131 34.4029ZM171.113 38.3388L171.027 57.3386L190.026 57.425L190.113 38.4252L171.113 38.3388ZM157.242 6.30745L144.509 20.4093L144.509 20.4093L157.242 6.30745ZM157.263 1.8435L169.867 16.0605L170.07 15.881L170.267 15.6959L157.263 1.8435ZM162.255 1.86619L149.125 15.5998L149.321 15.7867L149.521 15.968L162.255 1.86619ZM162.234 6.33015L174.839 20.5472L174.839 20.5472L162.234 6.33015ZM167.553 38.3227L167.571 34.3867L129.571 34.2139L129.553 38.1499L167.553 38.3227ZM148.485 53.3001L157.845 53.3427L158.017 15.3431L148.658 15.3005L148.485 53.3001ZM176.931 34.4293L177.015 15.9014L139.015 15.7287L138.931 34.2565L176.931 34.4293ZM158.102 -3.18474L149.942 -3.22184L149.769 34.7778L157.929 34.8149L158.102 -3.18474ZM168.855 15.8643L168.873 11.9284L130.873 11.7556L130.856 15.6916L168.855 15.8643ZM149.787 30.8418L162.267 30.8986L162.439 -7.10106L149.96 -7.15779L149.787 30.8418ZM143.353 11.8124L143.251 34.2761L181.251 34.4489L181.353 11.9851L143.353 11.8124ZM162.165 53.3623L171.045 53.4027L171.217 15.4031L162.337 15.3627L162.165 53.3623ZM152.131 34.3165L152.113 38.2525L190.113 38.4252L190.131 34.4893L152.131 34.3165ZM171.199 19.339L148.64 19.2365L148.467 57.2361L171.027 57.3386L171.199 19.339ZM159.821 -11.865C162.027 -11.855 166.189 -11.2133 169.976 -7.7944L144.509 20.4093C149.507 24.9217 155.331 26.115 159.648 26.1346L159.821 -11.865ZM169.976 -7.79438C171.74 -6.20161 173.201 -4.17217 174.157 -1.82918C175.088 0.455148 175.348 2.56322 175.34 4.18171L137.341 4.00895C137.316 9.51913 139.319 15.7225 144.509 20.4093L169.976 -7.79438ZM175.34 4.18171C175.333 5.70269 175.081 7.7562 174.157 10.0134C173.203 12.3428 171.723 14.4155 169.867 16.0605L144.658 -12.3735C139.28 -7.60562 137.365 -1.30916 137.341 4.00895L175.34 4.18171ZM170.267 15.6959C166.473 19.2578 162.157 20.0019 159.676 19.9907L159.849 -18.0089C155.256 -18.0298 149.274 -16.7173 144.258 -12.0089L170.267 15.6959ZM159.676 19.9907C157.196 19.9794 152.887 19.1961 149.125 15.5998L175.384 -11.8674C170.412 -16.6212 164.442 -17.9881 159.849 -18.0089L159.676 19.9907ZM149.521 15.968C147.681 14.3062 146.22 12.2201 145.287 9.88212C144.383 7.61664 144.15 5.56092 144.157 4.03994L182.156 4.2127C182.18 -1.10542 180.322 -7.41903 174.988 -12.2356L149.521 15.968ZM144.157 4.03994C144.164 2.42145 144.443 0.315827 145.395 -1.95993C146.372 -4.29414 147.851 -6.31021 149.63 -7.88688L174.839 20.5472C180.072 15.9078 182.131 9.72288 182.156 4.2127L144.157 4.03994ZM149.63 -7.8869C153.447 -11.2712 157.615 -11.875 159.821 -11.865L159.648 26.1346C163.966 26.1542 169.801 25.014 174.839 20.5472L149.63 -7.8869ZM182.186 37.5732L173.333 54.3845L173.333 54.3845L182.186 37.5732ZM178.602 34.1008L161.854 43.0742L161.966 43.2836L162.084 43.4902L178.602 34.1008ZM178.683 16.245L162.251 6.70586L162.174 6.8385L162.099 6.97237L178.683 16.245ZM182.298 12.8054L173.598 -4.08567L173.598 -4.08566L182.298 12.8054ZM193.242 12.8552L202.096 -3.9561L202.096 -3.95611L193.242 12.8552ZM196.779 16.3273L180.111 25.4488L180.185 25.5833L180.261 25.7167L196.779 16.3273ZM196.697 34.1831L180.18 24.793L180.147 24.8516L180.114 24.9105L196.697 34.1831ZM193.13 37.6229L201.83 54.514L201.83 54.514L193.13 37.6229ZM192.093 33.3942L205.467 46.8901L205.467 46.8901L192.093 33.3942ZM183.335 17.0342L170.164 3.34013L170.062 3.43842L169.961 3.53822L183.335 17.0342ZM183.261 33.354L169.765 46.7278L169.865 46.8285L169.966 46.9278L183.261 33.354ZM187.739 19.7982C188.02 19.7995 189.337 19.8654 191.039 20.7619L173.333 54.3845C178.1 56.8949 183.061 57.7774 187.566 57.7978L187.739 19.7982ZM191.039 20.7619C192.723 21.6488 194.186 23.0693 195.119 24.7115L162.084 43.4902C164.732 48.1482 168.584 51.8836 173.333 54.3845L191.039 20.7619ZM195.349 25.1275C196.277 26.8593 196.38 28.2789 196.378 28.7576L158.378 28.5848C158.357 33.2235 159.276 38.2628 161.854 43.0742L195.349 25.1275ZM196.378 28.7576L196.41 21.7497L158.41 21.5769L158.378 28.5848L196.378 28.7576ZM196.41 21.7497C196.408 22.1263 196.319 23.6359 195.266 25.5177L162.099 6.97237C159.369 11.8546 158.431 16.9763 158.41 21.5769L196.41 21.7497ZM195.115 25.7842C194.166 27.4178 192.691 28.8249 190.999 29.6965L173.598 -4.08566C168.827 -1.62806 164.941 2.07213 162.251 6.70586L195.115 25.7842ZM190.998 29.6965C189.288 30.5775 187.971 30.6314 187.689 30.6301L187.862 -7.36948C183.357 -7.38997 178.388 -6.55269 173.598 -4.08567L190.998 29.6965ZM187.689 30.6301C187.408 30.6288 186.091 30.563 184.389 29.6665L202.096 -3.95611C197.329 -6.46658 192.367 -7.349 187.862 -7.36948L187.689 30.6301ZM184.389 29.6665C183.598 29.25 182.757 28.6645 181.964 27.8859C181.17 27.1064 180.557 26.2636 180.111 25.4488L213.446 7.2058C210.814 2.39626 206.905 -1.42341 202.096 -3.9561L184.389 29.6665ZM180.261 25.7167C179.178 23.8115 179.048 22.2019 179.05 21.6228L217.05 21.7955C217.071 17.0564 216.094 11.8589 213.296 6.93792L180.261 25.7167ZM179.05 21.6228L179.018 28.6787L217.018 28.8514L217.05 21.7955L179.05 21.6228ZM179.018 28.6787C179.021 28.0862 179.17 26.5701 180.18 24.793L213.215 43.5733C215.967 38.732 216.996 33.6039 217.018 28.8514L179.018 28.6787ZM180.114 24.9105C180.567 24.0997 181.188 23.2625 181.989 22.4903C182.789 21.719 183.635 21.1411 184.43 20.7318L201.83 54.514C206.662 52.0252 210.605 48.2412 213.281 43.4558L180.114 24.9105ZM184.43 20.7318C186.14 19.8508 187.457 19.797 187.739 19.7982L187.566 57.7978C192.071 57.8183 197.04 56.981 201.83 54.514L184.43 20.7318ZM187.583 53.9579C193.109 53.983 199.941 52.3658 205.467 46.8901L178.719 19.8982C182.123 16.5249 186.006 15.9503 187.756 15.9583L187.583 53.9579ZM205.467 46.8901C211.269 41.1404 212.674 34.0051 212.698 28.8318L174.698 28.659C174.703 27.5817 175.038 23.5456 178.719 19.8982L205.467 46.8901ZM212.698 28.8318L212.73 21.8239L174.73 21.6511L174.698 28.659L212.698 28.8318ZM212.73 21.8239C212.753 16.6506 211.413 9.50283 205.663 3.70053L178.671 30.4482C175.024 26.7674 174.725 22.7284 174.73 21.6511L212.73 21.8239ZM205.663 3.70053C200.187 -1.82514 193.371 -3.5044 187.845 -3.52952L187.672 34.4701C185.922 34.4621 182.044 33.8522 178.671 30.4482L205.663 3.70053ZM187.845 -3.52952C182.22 -3.55509 175.582 -1.87067 170.164 3.34013L196.506 30.7282C195.038 32.1401 193.328 33.155 191.594 33.7682C189.925 34.3584 188.532 34.474 187.672 34.4701L187.845 -3.52952ZM169.961 3.53822C164.159 9.288 162.754 16.4233 162.73 21.5966L200.73 21.7693C200.725 22.8466 200.39 26.8828 196.709 30.5302L169.961 3.53822ZM162.73 21.5966L162.698 28.6045L200.698 28.7772L200.73 21.7693L162.73 21.5966ZM162.698 28.6045C162.675 33.7778 164.015 40.9255 169.765 46.7278L196.757 19.9802C200.404 23.6609 200.703 27.6999 200.698 28.7772L162.698 28.6045ZM169.966 46.9278C175.336 52.1876 181.959 53.9323 187.583 53.9579L187.756 15.9583C188.616 15.9622 190.008 16.0905 191.672 16.6958C193.4 17.3247 195.101 18.3552 196.556 19.7803L169.966 46.9278ZM213.51 37.9556L200.014 51.3294L200.162 51.4793L200.314 51.6259L213.51 37.9556ZM213.536 32.1476L200.162 18.6517L200.012 18.8003L199.866 18.9521L213.536 32.1476ZM219.344 32.174L205.554 45.2447L205.699 45.3979L205.848 45.5479L219.344 32.174ZM219.318 37.982L206.247 24.1922L206.094 24.3374L205.944 24.486L219.318 37.982ZM216.519 20.0251C219.186 20.0372 223.252 20.9521 226.705 24.2852L200.314 51.6259C205.233 56.3737 211.248 58.0015 216.346 58.0247L216.519 20.0251ZM227.006 24.5818C228.596 26.1869 229.801 28.1062 230.556 30.1587C231.288 32.15 231.472 33.9197 231.466 35.2052L193.467 35.0324C193.443 40.232 195.105 46.3761 200.014 51.3294L227.006 24.5818ZM231.466 35.2052C231.455 37.6858 230.628 41.7985 227.206 45.3432L199.866 18.9521C195.03 23.9624 193.489 30.0558 193.467 35.0324L231.466 35.2052ZM226.91 45.6436C225.357 47.1825 223.483 48.3765 221.446 49.134C219.465 49.8708 217.691 50.0627 216.383 50.0568L216.555 12.0572C211.216 12.0329 205.082 13.776 200.162 18.6517L226.91 45.6436ZM216.383 50.0568C215.082 50.0509 213.263 49.8448 211.218 49.0505C209.106 48.2296 207.154 46.9329 205.554 45.2447L233.134 19.1034C228.182 13.8793 221.871 12.0813 216.555 12.0572L216.383 50.0568ZM205.848 45.5479C204.257 43.942 203.064 42.029 202.323 40.0011C201.604 38.0368 201.429 36.3042 201.435 35.0687L239.434 35.2414C239.458 30.028 237.81 23.8155 232.84 18.8002L205.848 45.5479ZM201.435 35.0687C201.441 33.6911 201.666 31.8298 202.48 29.7684C203.318 27.6478 204.616 25.7384 206.247 24.1922L232.388 51.7718C237.509 46.9184 239.41 40.6936 239.434 35.2414L201.435 35.0687ZM205.944 24.486C209.579 20.8835 213.883 20.0131 216.519 20.0251L216.346 58.0247C221.414 58.0477 227.642 56.4821 232.691 51.478L205.944 24.486Z" fill="#AE1124"/>
</g>
<defs>
<filter id="filter0_d_1_65" x="0.790287" y="0.287079" width="223.798" height="46.7559" filterUnits="userSpaceOnUse" color-interpolation-filters="sRGB">
<feFlood flood-opacity="0" result="BackgroundImageFix"/>
<feColorMatrix in="SourceAlpha" type="matrix" values="0 0 0 0 0 0 0 0 0 0 0 0 0 0 0 0 0 0 127 0" result="hardAlpha"/>
<feOffset dy="4"/>
<feGaussianBlur stdDeviation="2"/>
<feComposite in2="hardAlpha" operator="out"/>
<feColorMatrix type="matrix" values="0 0 0 0 0 0 0 0 0 0 0 0 0 0 0 0 0 0 0.25 0"/>
<feBlend mode="normal" in2="BackgroundImageFix" result="effect1_dropShadow_1_65"/>
<feBlend mode="normal" in="SourceGraphic" in2="effect1_dropShadow_1_65" result="shape"/>
</filter>
</defs>
</svg>
